<svg width="264" height="281" viewBox="0 0 264 281" fill="none" xmlns="http://www.w3.org/2000/svg">
<path fill-rule="evenodd" clip-rule="evenodd" d="M120.627 1.08607C112.343 2.80907 109.12 4.66408 68.26 31.2371C63.728 34.1851 59.65 36.5961 59.198 36.5961C58.747 36.5961 57.505 37.3911 56.439 38.3621C55.372 39.3341 51.35 42.0521 47.5 44.4041C38.495 49.9031 29.908 55.2661 28 56.5821C23.566 59.6391 7.921 69.5181 4.25 71.5791L0 73.9641V85.2801V96.5961H3H6V87.1061V77.6161L11.75 73.9321C14.912 71.9061 19.075 69.2531 21 68.0371C22.925 66.8211 29.225 62.7641 35 59.0211C40.775 55.2791 45.535 52.4151 45.578 52.6561C45.68 53.2311 53.28 47.5171 54.235 46.1491C54.639 45.5701 54.976 45.4201 54.985 45.8171C54.993 46.2131 57.007 45.3131 59.459 43.8171C66.506 39.5181 88.131 25.7041 98.778 18.7021C114.349 8.46007 119.796 6.31207 130.5 6.19507C143.83 6.04807 148.25 7.66907 166 19.2101C184.897 31.4971 200.188 41.2931 205.5 44.5161C208.25 46.1841 214.325 49.9961 219 52.9881C231.191 60.7891 239.305 65.8951 249 71.8631L257.5 77.0961L257.786 86.8461L258.072 96.5961H261.036H264V85.3121V74.0271L260.75 72.1881C255.741 69.3531 241.682 60.4791 222.802 48.2361C218.019 45.1341 213.744 42.5951 213.302 42.5941C212.861 42.5921 210.925 41.2431 209 39.5961C207.075 37.9491 205.158 36.6001 204.74 36.5981C204.006 36.5961 199.182 33.5421 175.257 17.9321C169.074 13.8971 163.795 10.5961 163.527 10.5961C163.258 10.5961 160.646 9.06607 157.722 7.19507C147.648 0.750068 133.471 -1.58393 120.627 1.08607ZM94.427 37.8461C88.787 55.3371 90.474 67.0891 99.89 75.8971C103.846 79.5971 106.459 80.9701 114.37 83.5041C119.68 85.2041 126.156 86.5881 128.762 86.5791L133.5 86.5621L130 84.3511C128.075 83.1341 125.38 81.1171 124.01 79.8671C122.641 78.6181 121.231 77.5961 120.877 77.5961C120.524 77.5961 117.74 74.6741 114.692 71.1031C109.361 64.8591 105.468 56.9401 104.376 50.1221L103.891 47.0961L105.739 50.5961C109.784 58.2591 120.836 69.2741 128.816 73.5961L134.25 76.5391L133.587 71.3181C132.656 63.9811 131.17 59.7681 127.743 54.7531C124.528 50.0481 117.686 45.1821 111.806 43.4201C106.905 41.9511 101.083 37.0401 99.362 32.9211C98.598 31.0921 97.774 29.5961 97.53 29.5961C97.286 29.5961 95.89 33.3091 94.427 37.8461ZM166.443 49.2451C165.768 51.1421 163.23 53.1081 157.5 56.1761C153.1 58.5321 148.712 61.5021 147.749 62.7771C145.722 65.4631 142 75.2291 142 77.8641C142 79.4431 142.278 79.5051 144.298 78.3781C149.646 75.3951 156.007 69.7761 159.05 65.3461C164.824 56.9411 165.466 60.3421 159.947 70.0961C157.195 74.9601 150.887 81.7141 146.17 84.8481C143.862 86.3821 143.875 86.3961 147.67 86.4111C153.481 86.4331 163.992 81.9921 167.642 77.9731C170.653 74.6561 172.996 68.2891 173.003 63.4031C173.007 60.4511 168.922 46.5961 168.047 46.5961C167.684 46.5961 166.962 47.7881 166.443 49.2451ZM9.455 106.051C7.172 108.333 7 109.214 7 118.616C7 131.653 8.378 134.55 14.595 134.581C18.617 134.601 21 131.88 21 127.267C21 124.303 20.627 123.596 19.063 123.596C17.609 123.596 17.049 124.406 16.813 126.846C16.574 129.325 16.025 130.096 14.5 130.096C12.621 130.096 12.5 129.429 12.5 119.096C12.5 108.763 12.621 108.096 14.5 108.096C15.938 108.096 16.589 108.868 16.816 110.846C17.04 112.789 17.7 113.596 19.066 113.596C20.603 113.596 21 112.89 21 110.153C21 103.912 14.059 101.446 9.455 106.051ZM29 119.644V135.691L35.25 135.394C40.864 135.126 41.533 134.867 41.82 132.846C42.106 130.829 41.718 130.596 38.07 130.596H34V117.096V103.596H31.5H29V119.644ZM48.225 119.346C48.487 134.338 48.596 135.096 50.5 135.096C52.404 135.096 52.513 134.338 52.775 119.346L53.051 103.596H50.5H47.949L48.225 119.346ZM61.225 119.346C61.456 132.557 61.742 135.096 63 135.096C64.185 135.096 64.605 133.207 65 126.096L65.5 117.096L66.853 125.032C68.541 134.934 68.801 135.596 71.003 135.596C72.483 135.596 73.027 134.082 74.146 126.846L75.5 118.096L76 126.596C76.463 134.472 76.665 135.119 78.75 135.416L81 135.735V119.666V103.596H77.622H74.243L73.122 111.137C72.505 115.284 72 119.874 72 121.337C72 126.807 70.236 121.829 68.992 112.846L67.71 103.596H64.33H60.949L61.225 119.346ZM92.541 104.846C91.581 107.879 88.141 134.015 88.604 134.764C89.637 136.436 91.129 135.524 92.15 132.596C92.988 130.192 93.772 129.596 96.098 129.596C97.823 129.596 99 130.127 99 130.905C99 133.412 101.582 135.932 103.182 134.986C104.503 134.204 104.377 132.248 102.142 118.846L99.598 103.596H96.267C94.436 103.596 92.759 104.159 92.541 104.846ZM111 104.37C111 104.872 111.9 107.899 113 111.096C115.549 118.504 115.513 120.091 112.619 128.065C111.309 131.673 110.594 134.845 111.029 135.114C112.908 136.275 114.78 134.136 116.409 128.966C117.371 125.916 118.35 123.613 118.585 123.848C118.82 124.083 119.84 126.71 120.852 129.686C122.215 133.695 123.184 135.096 124.595 135.096C126.945 135.096 126.877 133.239 124.226 124.978L122.263 118.859L124.618 111.478C125.913 107.418 126.979 103.983 126.987 103.846C126.994 103.709 126.119 103.596 125.041 103.596C123.594 103.596 122.618 104.902 121.306 108.596C120.33 111.346 119.265 113.596 118.941 113.596C118.617 113.596 117.689 111.459 116.88 108.846C115.777 105.281 114.859 104.016 113.205 103.776C111.992 103.601 111 103.868 111 104.37ZM147.972 105.418C146.098 106.935 145.641 108.507 145.235 114.834C144.649 123.969 145.576 131.029 147.631 133.084C149.606 135.059 155.429 135.024 157.429 133.025C158.578 131.876 159 129.438 159 123.958V116.463L156.25 116.78C154.281 117.006 153.409 117.735 153.18 119.346C153.005 120.584 153.368 121.596 153.988 121.596C154.695 121.596 155.001 123.178 154.807 125.846C154.556 129.327 154.138 130.096 152.5 130.096C150.621 130.096 150.5 129.429 150.5 119.096C150.5 108.763 150.621 108.096 152.5 108.096C153.938 108.096 154.589 108.868 154.816 110.846C155.04 112.789 155.7 113.596 157.066 113.596C158.603 113.596 159 112.89 159 110.153C159 104.317 152.681 101.604 147.972 105.418ZM167 118.989C167 132.137 167.232 134.471 168.59 134.992C171.295 136.03 172 134.696 172 128.537C172 123.282 172.229 122.596 173.981 122.596C176.11 122.596 176.784 124.357 177.233 131.096C177.45 134.34 177.878 135.096 179.5 135.096C181.199 135.096 181.539 134.343 181.759 130.096C181.902 127.346 181.429 123.971 180.708 122.596C179.614 120.508 179.638 119.476 180.854 116.336C182.027 113.309 182.085 111.822 181.15 108.702C179.873 104.441 178.301 103.632 171.25 103.61L167 103.596V118.989ZM189.225 119.346L189.5 135.096L195.75 135.394C201.859 135.685 202 135.634 202 133.144C202 130.838 201.62 130.596 198 130.596H194V126.096C194 121.763 194.111 121.596 197 121.596C199.533 121.596 200 121.207 200 119.096C200 116.985 199.533 116.596 197 116.596C194.111 116.596 194 116.429 194 112.096V107.596H198C201.333 107.596 202 107.263 202 105.596C202 103.8 201.333 103.596 195.475 103.596H188.949L189.225 119.346ZM210.225 119.346L210.5 135.096H216.5C221.961 135.096 222.529 134.894 222.82 132.846C223.111 130.794 222.736 130.596 218.57 130.596H214V126.096C214 121.603 214.006 121.596 217.57 121.596C220.699 121.596 221.1 121.319 220.82 119.346C220.573 117.612 219.742 117.023 217.196 116.779C213.977 116.469 213.899 116.353 214.196 112.279C214.498 108.128 214.533 108.094 218.75 107.789C222.186 107.54 223 107.109 223 105.539C223 103.814 222.269 103.596 216.475 103.596H209.949L210.225 119.346ZM230.225 119.346C230.456 132.557 230.742 135.096 232 135.096C233.212 135.096 233.596 132.985 234 124.096L234.5 113.096L236.729 121.725C239.885 133.946 240.628 135.596 242.975 135.596C244.924 135.596 245 134.995 245 119.596C245 104.263 244.917 103.596 243 103.596C241.171 103.596 240.991 104.299 240.89 111.846L240.78 120.096L238.222 111.846C235.801 104.034 235.514 103.596 232.807 103.596H229.949L230.225 119.346ZM175.8 108.796C177.468 110.464 177.303 116.099 175.544 117.56C173.193 119.511 172 117.821 172 112.537C172 107.485 173.254 106.25 175.8 108.796ZM97.926 122.846C97.984 124.996 97.542 125.596 95.902 125.596C93.919 125.596 93.843 125.253 94.516 119.346C94.907 115.909 95.508 112.646 95.85 112.096C96.483 111.078 97.791 117.852 97.926 122.846ZM0 162.47V173.344L8.25 178.65C12.787 181.568 18.975 185.523 22 187.438C25.025 189.353 30.425 192.804 34 195.107C37.575 197.41 45 202.119 50.5 205.572C63.983 214.037 66.29 215.5 75 221.115C79.125 223.774 84.75 227.368 87.5 229.101C90.25 230.834 96.1 234.559 100.5 237.38C113.095 245.452 120.599 247.977 132 247.977C145.352 247.977 151.655 245.392 173.382 231.005C178.384 227.693 189.307 220.794 194.5 217.667C197.25 216.012 200.175 214.193 201 213.626C203.072 212.201 219.534 201.65 234.242 192.321C240.984 188.045 250.438 182.037 255.25 178.969L264 173.391V162.493V151.596H261H258V160.898V170.2L248.75 176.028C243.663 179.234 237.25 183.306 234.5 185.078C231.75 186.85 226.125 190.458 222 193.096C217.875 195.734 212.25 199.338 209.5 201.106C206.75 202.874 200 207.146 194.5 210.6C189 214.053 182.137 218.39 179.25 220.238C145.834 241.614 145.907 241.581 131.909 241.59C121.646 241.597 116.327 240.146 108.679 235.254C105.534 233.242 102.706 231.596 102.394 231.596C102.082 231.596 99.953 230.301 97.663 228.718C92.375 225.062 79.598 216.87 65.5 208.095C59.45 204.329 53.375 200.504 52 199.594C48.146 197.043 39.23 191.31 31.5 186.41C27.65 183.97 20.338 179.325 15.25 176.087L6 170.2V160.898V151.596H3H0V162.47ZM31.667 152.263C30.859 153.07 30.8 167.25 31.592 170.2C32.126 172.189 32.766 171.976 43.328 166.284C49.473 162.973 57.406 158.76 60.957 156.922C64.509 155.085 67.862 153.134 68.407 152.589C69.064 151.932 63.13 151.596 50.867 151.596C40.673 151.596 32.033 151.896 31.667 152.263ZM78.891 155.473C75.256 157.466 65.174 162.866 56.486 167.474L40.689 175.853L43.095 177.681C44.418 178.686 48.875 180.924 53 182.655C57.125 184.385 60.989 186.199 61.587 186.686C62.575 187.489 75.784 174.692 92.389 156.846L97.274 151.596L91.387 151.723C86.649 151.825 84.21 152.557 78.891 155.473ZM89.167 170.929L69.853 190.262L77.472 193.584C81.955 195.539 85.445 196.533 85.951 196.001C86.425 195.503 88.595 191.721 90.774 187.596C94.422 180.691 99.212 171.989 105.635 160.596C108.84 154.912 110.159 151.596 109.216 151.596C108.811 151.596 99.79 160.296 89.167 170.929ZM117.651 153.846C116.884 155.084 114.559 159.246 112.485 163.096C110.411 166.946 107.245 172.796 105.45 176.096C103.654 179.396 99.934 186.274 97.183 191.379L92.18 200.663L100.34 204.508C113.926 210.911 120.411 213.944 122.25 214.758C123.896 215.486 124 213.637 124 183.564V151.596H121.523C120.034 151.596 118.49 152.494 117.651 153.846ZM139.029 184.034C139.029 207.199 139.349 216.596 140.138 216.596C140.747 216.596 143.778 215.26 146.873 213.626C149.968 211.993 156.887 208.617 162.25 206.124C167.613 203.632 172 201.446 172 201.268C172 200.959 169.904 197.107 157.217 174.096C154.184 168.596 150.277 161.396 148.535 158.096C145.793 152.904 144.94 152.054 142.198 151.784L139.029 151.471V184.034ZM154 152.125C154 152.86 159.093 162.323 165.556 173.596C168.552 178.821 172.363 185.862 174.025 189.243C175.688 192.624 177.611 195.858 178.299 196.429C179.196 197.174 181.45 196.582 186.275 194.335C189.974 192.612 193 190.856 193 190.432C193 189.346 155.942 151.596 154.876 151.596C154.394 151.596 154 151.834 154 152.125ZM173.432 158.846C177.047 162.834 184.841 170.919 190.752 176.815L201.5 187.533L211.377 182.638C216.809 179.945 221.686 177.31 222.214 176.782C222.828 176.168 214.931 171.456 200.337 163.727C179.477 152.679 177.039 151.631 172.18 151.614L166.859 151.596L173.432 158.846ZM194.096 152.025C194.332 152.262 197.895 154.216 202.013 156.368C206.131 158.52 214.651 163.052 220.947 166.439C227.243 169.825 232.418 172.597 232.447 172.598C232.476 172.599 232.359 167.874 232.186 162.098L231.871 151.596H212.769C202.263 151.596 193.86 151.789 194.096 152.025ZM45.559 255.846C44.125 260.59 42.121 279.117 42.952 279.948C43.583 280.579 44.282 279.986 44.938 278.259C46.257 274.789 49.703 274.685 50.993 278.077C52.052 280.863 55.404 280.537 54.583 277.728C54.321 276.83 53.571 272.271 52.916 267.596C52.262 262.921 51.349 258.084 50.888 256.846C49.985 254.424 46.204 253.714 45.559 255.846ZM79 267.468C79 278.26 79.258 280.596 80.448 280.596C81.489 280.596 81.98 279.123 82.198 275.346C82.42 271.48 82.896 270.096 84 270.096C85.044 270.096 85.664 271.526 86.041 274.804C86.647 280.07 87.509 281.487 89.125 279.871C89.794 279.202 89.982 276.907 89.612 273.938C88.838 267.741 88.833 266.823 89.543 262.596C90.321 257.962 88.552 255.826 83.25 255.002L79 254.34V267.468ZM97 267.596C97 278.485 97.244 280.596 98.5 280.596C99.756 280.596 100 278.485 100 267.596C100 256.707 99.756 254.596 98.5 254.596C97.244 254.596 97 256.707 97 267.596ZM125.598 255.332C125.269 255.66 125 260.789 125 266.727C125 276.38 125.205 277.635 126.934 278.561C129.724 280.054 132.618 279.835 134.461 277.992C135.772 276.681 136.014 274.442 135.783 265.742C135.441 252.874 133.611 251.324 133.249 263.596C132.942 274.017 132.393 276.596 130.481 276.596C129.268 276.596 129 274.715 129 266.203C129 258.209 128.676 255.686 127.598 255.272C126.827 254.976 125.927 255.003 125.598 255.332ZM143.428 255.924C143.154 256.636 143.059 262.366 143.215 268.657L143.5 280.096H147.986C151.464 280.096 152.548 279.703 152.81 278.346C153.072 276.986 152.462 276.596 150.073 276.596H147V266.203C147 257.774 146.709 255.698 145.462 255.22C144.616 254.895 143.701 255.212 143.428 255.924ZM158 256.596C158 257.929 158.667 258.596 160 258.596C161.871 258.596 162 259.263 162 268.929C162 274.613 162.269 279.532 162.598 279.86C162.927 280.189 163.827 280.216 164.598 279.92C165.676 279.506 166 276.983 166 268.989C166 260.417 166.263 258.596 167.5 258.596C168.333 258.596 169 257.707 169 256.596C169 254.838 168.333 254.596 163.5 254.596C158.667 254.596 158 254.838 158 256.596ZM176.25 255.304C175.36 255.631 175 258.743 175 266.108C175 277.536 175.897 279.596 180.871 279.596C185.453 279.596 186 278.134 186 265.896C186 256.634 185.736 254.596 184.534 254.596C183.354 254.596 183.012 256.696 182.784 265.346C182.552 274.109 182.223 276.096 181 276.096C179.786 276.096 179.445 274.191 179.211 266.107C178.918 255.993 178.503 254.478 176.25 255.304ZM194.25 255.235C192.683 255.896 192.44 279.596 194 279.596C194.55 279.596 195.337 279.607 195.75 279.621C196.163 279.634 196.725 277.497 197 274.871C197.351 271.515 197.946 270.096 199 270.096C200.063 270.096 200.593 271.403 200.819 274.58C201.123 278.861 202.486 281.032 204.202 279.971C205.543 279.142 205.089 270.828 203.622 269.361C202.451 268.19 202.451 267.699 203.622 266.098C206.333 262.39 204.44 255.626 200.679 255.582C200.03 255.575 198.6 255.375 197.5 255.138C196.4 254.901 194.938 254.945 194.25 255.235ZM212.25 255.235C211.35 255.615 211 259.091 211 267.66C211 279.356 211.04 279.568 213.379 280.155C217.33 281.147 221.451 280.263 221.815 278.346C222.081 276.944 221.436 276.596 218.573 276.596C215.071 276.596 215 276.516 215 272.596C215 268.996 215.25 268.596 217.5 268.596C220.653 268.596 220.869 265.858 217.75 265.416C216.025 265.171 215.427 264.337 215.187 261.846C214.885 258.718 215.009 258.596 218.51 258.596C221.433 258.596 222.082 258.253 221.815 256.846C221.573 255.569 220.403 255.043 217.491 254.901C215.296 254.794 212.938 254.944 212.25 255.235ZM62.035 257.53C61.466 258.594 61 263.124 61 267.596C61 277.245 61.972 279.596 65.964 279.596C70.247 279.596 72 277.252 72 271.525C72 266.934 71.829 266.596 69.5 266.596C66.876 266.596 66.209 268.405 68.127 270.323C69.825 272.021 68.32 276.804 66.214 276.399C64.756 276.118 64.5 274.803 64.5 267.596C64.5 260.389 64.756 259.074 66.214 258.793C67.361 258.572 68.142 259.312 68.573 261.03C69.341 264.09 72 264.479 72 261.53C72 257.605 70.138 255.596 66.5 255.596C64.133 255.596 62.75 256.195 62.035 257.53ZM108.571 257.167C107.379 258.359 107 260.877 107 267.596C107 277.502 108.053 279.596 113.036 279.596C116.246 279.596 118 277.322 118 273.162C118 269.638 115.225 269.799 114.816 273.346C114.628 274.983 113.893 276.096 113 276.096C111.784 276.096 111.5 274.485 111.5 267.596C111.5 260.707 111.784 259.096 113 259.096C113.825 259.096 114.644 260.108 114.82 261.346C114.995 262.584 115.783 263.596 116.57 263.596C118.341 263.596 118.513 258.509 116.8 256.796C115.101 255.097 110.431 255.308 108.571 257.167ZM85.5 262.596C85.5 265.108 85.016 266.162 83.75 266.406C82.311 266.683 82 266.007 82 262.596C82 259.185 82.311 258.509 83.75 258.786C85.016 259.03 85.5 260.084 85.5 262.596ZM200.5 262.596C200.5 265.108 200.016 266.162 198.75 266.406C197.311 266.683 197 266.007 197 262.596C197 259.185 197.311 258.509 198.75 258.786C200.016 259.03 200.5 260.084 200.5 262.596ZM49.15 268.096C49.416 271.14 49.142 272.096 48 272.096C47.175 272.096 46.537 271.308 46.583 270.346C46.992 261.762 47.097 261.159 47.931 262.596C48.409 263.421 48.958 265.896 49.15 268.096Z" fill="black"/>
</svg>
